<?xml version="1.0" encoding="UTF-8"?>
<svg id="Layer_1" xmlns="http://www.w3.org/2000/svg" version="1.1" viewBox="0 0 350.44 350.44">
  <!-- Generator: Adobe Illustrator 30.1.0, SVG Export Plug-In . SVG Version: 2.1.1 Build 136)  -->
  <defs>
    <style>
      .st0 {
        fill: #08519e;
      }
    </style>
  </defs>
  <path class="st0" d="M350.44,345.37V0H0v350.44h350.44v-5.07ZM10.16,345.37V5.1l-5.14,5.14h340.31l-5.07-5.14v340.26l5.07-5.1H5.02l5.14,5.1h0Z"/>
  <path class="st0" d="M37.43,127.9h275.08s-23.51-92.76-132.92-100.02c-7.75-.48-107.64-1.1-142.15,100.02h0Z"/>
  <path class="st0" d="M35.78,216.78h278.34s-27.91,103.34-136.73,104.37c-7.06.1-106.62,2.26-141.61-104.37Z"/>
  <g>
    <path class="st0" d="M64.93,201.51c-9.43,0-16.63-2.6-21.65-7.68-5.03-5.22-7.5-12.25-7.5-21.31,0-6.29,1.2-11.66,3.63-16.02,2.38-4.47,5.74-7.83,10.09-10.23,4.31-2.31,9.86-3.53,16.64-3.53s11.86,1.16,15.96,3.4c4.14,2.26,7.37,5.41,9.58,9.49,2.27,3.97,3.38,8.97,3.38,14.87,0,6.31-1.26,11.78-3.66,16.46-2.49,4.62-5.96,8.17-10.39,10.75-4.49,2.52-9.82,3.79-16.08,3.79h0ZM66.39,197.11c5.12,0,9.21-2.05,12.27-6.06,3.02-4.07,4.54-10.18,4.54-18.37,0-8.71-1.75-15.23-5.21-19.91-2.86-3.72-7.21-5.59-13.07-5.59-5.5,0-9.8,1.93-12.83,5.85-2.96,3.85-4.47,9.84-4.47,17.9,0,5.82.77,10.75,2.4,14.8,1.69,4.02,3.8,6.9,6.35,8.7,2.57,1.81,5.89,2.68,10.01,2.68h0Z"/>
    <path class="st0" d="M101.1,200.67v-3.3c2.88-.22,4.56-.49,4.96-.8.26-.13.49-.35.58-.75.27-.63.45-2.82.55-6.62.12-5.8.13-10.46.13-13.79,0-4.55-.01-10.27-.11-17.27-.09-5.22-.41-8.42-.72-9.57-.08-.37-.3-.62-.58-.82-.42-.25-1.99-.59-4.82-.91v-3.23c5.29.18,8.72.29,10.21.29l19.25-.29c4.16,0,7.19.39,9.07,1.26,1.96.8,3.48,2.16,4.55,4.08,1.05,1.88,1.65,4.08,1.65,6.62,0,3.24-.89,6.12-2.7,8.53-1.78,2.51-4.89,4.64-9.32,6.5l8.2,13.05,6.37,9.98c1.18,1.77,2.09,2.81,2.68,3.19.61.34,1.55.53,2.87.55v2.99l-2.22.06c-6.49.09-10.56.14-12.43.25-2.28-3.77-5.6-9.24-10.11-16.38l-7.98-12.77c.26-.49.41-.92.6-1.47,1.01.14,1.79.18,2.32.18,2.4,0,4.72-1.02,7.13-2.98,2.34-2.04,3.47-4.93,3.47-8.66,0-3.23-.9-5.74-2.75-7.55-1.82-1.77-4.63-2.69-8.33-2.69-1.12,0-2.72.11-4.73.33l-.25,11.98-.33,15.21c0,3.43.1,7.79.39,13.23.18,3.98.4,6.25.65,6.72.12.36.4.63.79.87.52.34,2.29.53,5.17.69v3.3c-4.56-.16-8.59-.31-12.15-.31s-7.78.15-12.07.31h.01Z"/>
    <path class="st0" d="M157.71,200.67v-3.3c3.47-.16,5.47-.49,5.84-.94.46-.41.76-1.49.85-3.2.2-3.59.3-10.37.3-20.14,0-3.79,0-9.22-.15-16.36-.07-4.9-.15-7.56-.31-8.07-.12-.47-.46-.8-.77-1.05-.55-.31-2.51-.59-5.76-.78v-3.23c5.23.18,9.25.29,11.99.29,4.83,0,9.12-.12,12.97-.29v3.23c-3.47.19-5.41.56-5.83.9-.48.4-.76,1.21-.92,2.57-.12,2.62-.23,7.92-.23,15.9,0,10.67.03,18.09.1,22.27.06,4.15.29,6.64.71,7.5.14.26.48.58.92.83.51.17,2.24.37,5.25.58v3.3l-4.5-.12c-2.81-.11-5.38-.19-7.63-.19l-12.83.31h0Z"/>
    <path class="st0" d="M217.78,201.51c-9.44,0-16.65-2.6-21.64-7.68-5.04-5.22-7.53-12.25-7.53-21.31,0-6.29,1.24-11.66,3.64-16.02,2.41-4.47,5.83-7.83,10.1-10.23,4.31-2.31,9.85-3.53,16.63-3.53s11.82,1.16,15.99,3.4c4.13,2.26,7.34,5.41,9.52,9.49,2.29,3.97,3.39,8.97,3.39,14.87,0,6.31-1.24,11.78-3.7,16.46-2.42,4.62-5.86,8.17-10.36,10.75-4.41,2.52-9.78,3.79-16.05,3.79h0ZM219.21,197.11c5.15,0,9.25-2.05,12.3-6.06,3.03-4.07,4.56-10.18,4.56-18.37,0-8.71-1.75-15.23-5.27-19.91-2.78-3.72-7.16-5.59-13.03-5.59-5.51,0-9.78,1.93-12.78,5.85-3.03,3.85-4.57,9.84-4.57,17.9,0,5.82.87,10.75,2.5,14.8,1.66,4.02,3.79,6.9,6.33,8.7,2.55,1.81,5.9,2.68,9.96,2.68Z"/>
    <path class="st0" d="M253.63,200.67v-3.3c3.13-.1,5-.31,5.53-.6.34-.22.58-.61.77-1.09.3-.63.46-2.99.56-6.95.1-6.51.17-11.48.17-14.81l-.07-17.32c0-4.52-.15-7.18-.45-7.92-.15-.39-.4-.71-.73-.88-.48-.29-2.43-.63-5.79-.96v-3.23c4.06.18,7.04.29,8.89.29,2.18,0,4.6-.12,7.34-.29,5.96,7.95,12.63,16.61,20.08,25.96,5.01,6.3,9.28,11.44,12.87,15.57v-16.24c0-6.13,0-11.44-.09-15.9-.14-2.65-.32-4.26-.66-4.86-.1-.34-.4-.56-.82-.72-.44-.14-2.22-.32-5.41-.58v-3.23c2.76.18,5.48.29,8.16.29,3.74,0,7.1-.12,10.13-.29v3.23c-2.81.18-4.53.41-5.06.66-.38.12-.63.33-.86.59-.13.25-.31.58-.4.92-.23.66-.29,2.74-.31,6.3l-.09,16.26-.05,16.44c0,4.42.02,8.79.16,13.2l-.47.56c-3.06-.66-5.28-.99-6.56-1.2-6.59-7.71-14.54-17.41-23.86-29.04-4.69-5.89-8.49-10.87-11.41-14.87v15.86c0,4.3,0,9.52.12,15.61.09,4.49.26,7.07.57,7.74.08.35.28.51.53.7.46.31,2.32.58,5.49.8v3.3c-4.1-.16-7.08-.31-8.81-.31-1.43,0-4.63.15-9.49.31h.02Z"/>
  </g>
</svg>